<svg width="1520" height="350" viewBox="0 0 1520 350" fill="none" xmlns="http://www.w3.org/2000/svg">
<g filter="url(#filter0_d_1_543)">
<rect x="100" y="76" width="1320" height="150" rx="12" fill="white"/>
<g clip-path="url(#clip0_1_543)">
<path d="M214.179 136.15L193.293 126.067C193.108 125.978 192.892 125.978 192.707 126.067L171.821 136.15C171.588 136.262 171.44 136.498 171.44 136.757V161.243C171.44 161.502 171.588 161.738 171.821 161.85L192.707 171.933C192.8 171.978 192.9 172 193 172C193.1 172 193.2 171.978 193.293 171.933L214.179 161.85C214.412 161.738 214.56 161.502 214.56 161.243V136.757C214.56 136.498 214.412 136.262 214.179 136.15ZM193 127.422L212.336 136.757L206.731 139.463C206.695 139.435 206.658 139.41 206.617 139.391L187.412 130.12L193 127.422ZM185.89 130.882L205.198 140.202L201.244 142.112L181.944 132.794L185.89 130.882ZM205.65 141.481V148.538L201.956 150.321V143.264L205.65 141.481ZM213.212 160.821L193.674 170.253V147.262L198.334 145.012C198.669 144.851 198.81 144.448 198.648 144.113C198.486 143.778 198.084 143.637 197.748 143.799L193 146.091L191.132 145.189C190.796 145.027 190.394 145.168 190.232 145.503C190.07 145.838 190.211 146.241 190.546 146.403L192.326 147.262V170.253L172.788 160.82V137.83L187.666 145.013C187.761 145.058 187.86 145.08 187.959 145.08C188.209 145.08 188.45 144.94 188.566 144.699C188.728 144.364 188.587 143.961 188.252 143.799L173.664 136.757L180.358 133.525L200.599 143.297C200.602 143.301 200.605 143.305 200.609 143.309V151.394C200.609 151.626 200.728 151.842 200.924 151.965C201.033 152.034 201.158 152.068 201.282 152.068C201.382 152.068 201.483 152.046 201.575 152.001L206.617 149.567C206.85 149.455 206.998 149.219 206.998 148.961V140.83L213.212 137.83V160.821Z" fill="#272343"/>
<path d="M178.349 158.207L175.284 156.727C174.948 156.565 174.546 156.706 174.384 157.041C174.222 157.376 174.363 157.779 174.698 157.941L177.763 159.421C177.857 159.466 177.957 159.488 178.055 159.488C178.306 159.488 178.546 159.348 178.662 159.107C178.824 158.772 178.684 158.369 178.349 158.207Z" fill="#272343"/>
<path d="M181.17 156.371L175.288 153.532C174.953 153.37 174.55 153.51 174.388 153.845C174.226 154.181 174.367 154.583 174.702 154.745L180.584 157.585C180.678 157.63 180.778 157.652 180.876 157.652C181.127 157.652 181.367 157.512 181.483 157.271C181.645 156.936 181.505 156.533 181.17 156.371Z" fill="#272343"/>
</g>
<path d="M237.676 143C241.665 143 243.972 140.526 243.972 136.435C243.972 132.364 241.665 129.909 237.81 129.909H233.438V143H237.676ZM235.413 141.274V131.635H237.689C240.553 131.635 242.029 133.348 242.029 136.435C242.029 139.536 240.553 141.274 237.567 141.274H235.413ZM246.275 143H248.186V133.182H246.275V143ZM247.24 131.667C247.899 131.667 248.448 131.156 248.448 130.529C248.448 129.903 247.899 129.385 247.24 129.385C246.575 129.385 246.032 129.903 246.032 130.529C246.032 131.156 246.575 131.667 247.24 131.667ZM258.115 135.579C257.718 134.051 256.523 133.054 254.401 133.054C252.183 133.054 250.61 134.224 250.61 135.962C250.61 137.356 251.454 138.283 253.295 138.692L254.957 139.056C255.903 139.267 256.344 139.689 256.344 140.303C256.344 141.063 255.532 141.658 254.279 141.658C253.135 141.658 252.4 141.165 252.17 140.2L250.323 140.482C250.642 142.22 252.087 143.198 254.292 143.198C256.664 143.198 258.306 141.939 258.306 140.162C258.306 138.775 257.424 137.918 255.622 137.503L254.062 137.145C252.982 136.889 252.515 136.525 252.522 135.86C252.515 135.106 253.333 134.569 254.42 134.569C255.609 134.569 256.159 135.227 256.382 135.886L258.115 135.579ZM264.544 143.198C266.864 143.198 268.366 141.805 268.577 139.893H266.717C266.474 140.955 265.649 141.581 264.556 141.581C262.939 141.581 261.897 140.232 261.897 138.091C261.897 135.988 262.958 134.665 264.556 134.665C265.771 134.665 266.512 135.432 266.717 136.352H268.577C268.372 134.371 266.755 133.054 264.524 133.054C261.757 133.054 259.967 135.138 259.967 138.136C259.967 141.095 261.693 143.198 264.544 143.198ZM274.756 143.198C277.524 143.198 279.333 141.172 279.333 138.136C279.333 135.08 277.524 133.054 274.756 133.054C271.989 133.054 270.18 135.08 270.18 138.136C270.18 141.172 271.989 143.198 274.756 143.198ZM274.763 141.594C272.954 141.594 272.11 140.015 272.11 138.129C272.11 136.25 272.954 134.652 274.763 134.652C276.559 134.652 277.403 136.25 277.403 138.129C277.403 140.015 276.559 141.594 274.763 141.594ZM287.686 138.928C287.692 140.597 286.452 141.389 285.378 141.389C284.196 141.389 283.378 140.533 283.378 139.197V133.182H281.466V139.427C281.466 141.862 282.802 143.128 284.688 143.128C286.165 143.128 287.168 142.348 287.622 141.3H287.724V143H289.604V133.182H287.686V138.928ZM294.083 137.17C294.083 135.604 295.042 134.71 296.371 134.71C297.669 134.71 298.455 135.56 298.455 136.985V143H300.366V136.755C300.366 134.326 299.03 133.054 297.023 133.054C295.547 133.054 294.581 133.738 294.127 134.78H294.006V133.182H292.172V143H294.083V137.17ZM307.512 133.182H305.499V130.83H303.588V133.182H302.15V134.716H303.588V140.513C303.581 142.297 304.943 143.16 306.451 143.128C307.059 143.121 307.468 143.006 307.691 142.923L307.346 141.344C307.218 141.37 306.982 141.428 306.675 141.428C306.055 141.428 305.499 141.223 305.499 140.117V134.716H307.512V133.182Z" fill="#272343"/>
<path d="M233.321 166H239.99V164.828H234.642V161.121H239.564V159.949H234.642V156.263H239.905V155.091H233.321V166ZM248.806 157.818H247.442L245.184 164.338H245.098L242.84 157.818H241.476L244.502 166H245.78L248.806 157.818ZM253.602 166.17C255.264 166.17 256.479 165.339 256.862 164.104L255.648 163.763C255.328 164.615 254.588 165.041 253.602 165.041C252.127 165.041 251.11 164.088 251.051 162.335H256.99V161.803C256.99 158.756 255.179 157.712 253.475 157.712C251.259 157.712 249.789 159.459 249.789 161.973C249.789 164.487 251.237 166.17 253.602 166.17ZM251.051 161.249C251.136 159.975 252.036 158.841 253.475 158.841C254.838 158.841 255.712 159.864 255.712 161.249H251.051ZM258.903 166H260.16V160.822C260.16 159.714 261.033 158.905 262.226 158.905C262.562 158.905 262.908 158.969 262.993 158.99V157.712C262.85 157.701 262.519 157.69 262.333 157.69C261.353 157.69 260.501 158.244 260.202 159.054H260.117V157.818H258.903V166ZM265.542 169.068C266.677 169.068 267.476 168.466 267.95 167.193L271.434 157.839L270.059 157.818L267.801 164.338H267.716L265.457 157.818H264.093L267.119 166.043L266.885 166.682C266.426 167.928 265.862 168.045 264.946 167.811L264.626 168.919C264.754 168.983 265.116 169.068 265.542 169.068ZM279.169 166H280.405L282.195 159.714H282.323L284.112 166H285.348L287.841 157.818H286.52L284.752 164.061H284.666L282.941 157.818H281.598L279.851 164.082H279.766L277.997 157.818H276.676L279.169 166ZM292.655 166.17C294.317 166.17 295.532 165.339 295.915 164.104L294.701 163.763C294.381 164.615 293.641 165.041 292.655 165.041C291.18 165.041 290.162 164.088 290.104 162.335H296.043V161.803C296.043 158.756 294.232 157.712 292.527 157.712C290.311 157.712 288.841 159.459 288.841 161.973C288.841 164.487 290.29 166.17 292.655 166.17ZM290.104 161.249C290.189 159.975 291.089 158.841 292.527 158.841C293.891 158.841 294.765 159.864 294.765 161.249H290.104ZM301.386 166.17C303.048 166.17 304.262 165.339 304.646 164.104L303.431 163.763C303.112 164.615 302.371 165.041 301.386 165.041C299.91 165.041 298.893 164.088 298.834 162.335H304.773V161.803C304.773 158.756 302.962 157.712 301.258 157.712C299.042 157.712 297.572 159.459 297.572 161.973C297.572 164.487 299.021 166.17 301.386 166.17ZM298.834 161.249C298.919 159.975 299.82 158.841 301.258 158.841C302.621 158.841 303.495 159.864 303.495 161.249H298.834ZM306.686 166H307.943V162.937L308.822 162.122L311.885 166H313.483L309.77 161.312L313.227 157.818H311.672L308.092 161.462H307.943V155.091H306.686V166ZM320.321 161.078C320.321 159.651 321.205 158.841 322.409 158.841C323.575 158.841 324.284 159.603 324.284 160.886V166H325.541V160.801C325.541 158.713 324.428 157.712 322.771 157.712C321.535 157.712 320.768 158.266 320.385 159.097H320.278V157.818H319.064V166H320.321V161.078ZM331.268 166.17C332.93 166.17 334.145 165.339 334.528 164.104L333.314 163.763C332.994 164.615 332.254 165.041 331.268 165.041C329.793 165.041 328.776 164.088 328.717 162.335H334.656V161.803C334.656 158.756 332.845 157.712 331.141 157.712C328.925 157.712 327.455 159.459 327.455 161.973C327.455 164.487 328.903 166.17 331.268 166.17ZM328.717 161.249C328.802 159.975 329.702 158.841 331.141 158.841C332.504 158.841 333.378 159.864 333.378 161.249H328.717ZM338.422 166H339.658L341.448 159.714H341.576L343.365 166H344.601L347.094 157.818H345.773L344.005 164.061H343.919L342.194 157.818H340.851L339.104 164.082H339.019L337.25 157.818H335.929L338.422 166ZM358.77 159.651C358.376 158.489 357.492 157.712 355.873 157.712C354.147 157.712 352.868 158.692 352.868 160.077C352.868 161.206 353.539 161.962 355.042 162.314L356.405 162.634C357.231 162.825 357.62 163.219 357.62 163.784C357.62 164.487 356.874 165.062 355.702 165.062C354.674 165.062 354.029 164.62 353.806 163.741L352.613 164.04C352.906 165.43 354.051 166.17 355.723 166.17C357.625 166.17 358.919 165.132 358.919 163.72C358.919 162.58 358.206 161.861 356.746 161.504L355.532 161.206C354.562 160.966 354.125 160.641 354.125 160.013C354.125 159.31 354.871 158.798 355.873 158.798C356.97 158.798 357.423 159.406 357.641 159.97L358.77 159.651ZM363.219 166.192C364.647 166.192 365.393 165.425 365.648 164.892H365.712V166H366.969V160.609C366.969 158.01 364.988 157.712 363.944 157.712C362.708 157.712 361.302 158.138 360.663 159.629L361.856 160.055C362.133 159.459 362.788 158.82 363.986 158.82C365.142 158.82 365.712 159.432 365.712 160.482V160.524C365.712 161.131 365.094 161.078 363.603 161.27C362.085 161.467 360.428 161.803 360.428 163.678C360.428 165.276 361.664 166.192 363.219 166.192ZM363.411 165.062C362.41 165.062 361.685 164.615 361.685 163.741C361.685 162.783 362.559 162.484 363.539 162.357C364.072 162.293 365.499 162.143 365.712 161.888V163.038C365.712 164.061 364.903 165.062 363.411 165.062ZM370.521 155.091H369.264V166H370.521V155.091ZM376.254 166.17C377.916 166.17 379.13 165.339 379.514 164.104L378.299 163.763C377.98 164.615 377.239 165.041 376.254 165.041C374.778 165.041 373.761 164.088 373.702 162.335H379.642V161.803C379.642 158.756 377.831 157.712 376.126 157.712C373.91 157.712 372.44 159.459 372.44 161.973C372.44 164.487 373.889 166.17 376.254 166.17ZM373.702 161.249C373.788 159.975 374.688 158.841 376.126 158.841C377.49 158.841 378.363 159.864 378.363 161.249H373.702ZM387.349 159.651C386.955 158.489 386.071 157.712 384.452 157.712C382.726 157.712 381.447 158.692 381.447 160.077C381.447 161.206 382.119 161.962 383.621 162.314L384.984 162.634C385.81 162.825 386.199 163.219 386.199 163.784C386.199 164.487 385.453 165.062 384.281 165.062C383.253 165.062 382.609 164.62 382.385 163.741L381.192 164.04C381.485 165.43 382.63 166.17 384.302 166.17C386.204 166.17 387.498 165.132 387.498 163.72C387.498 162.58 386.785 161.861 385.325 161.504L384.111 161.206C383.141 160.966 382.704 160.641 382.704 160.013C382.704 159.31 383.45 158.798 384.452 158.798C385.549 158.798 386.002 159.406 386.22 159.97L387.349 159.651Z" fill="#9A9CAA"/>
<path d="M462.963 158.587C461.894 158.587 461.024 159.457 461.024 160.526C461.024 161.596 461.894 162.466 462.963 162.466C464.033 162.466 464.903 161.596 464.903 160.526C464.903 159.457 464.033 158.587 462.963 158.587Z" fill="#272343"/>
<path d="M503.045 158.587C501.975 158.587 501.105 159.457 501.105 160.526C501.105 161.596 501.975 162.466 503.045 162.466C504.114 162.466 504.984 161.596 504.984 160.526C504.984 159.457 504.114 158.587 503.045 158.587Z" fill="#272343"/>
<path d="M510.989 146.154L503.771 143.748L500.397 134.47C499.976 133.312 498.865 132.534 497.633 132.534H488.952V130.466C488.952 129.396 488.082 128.526 487.012 128.526H450.939C449.87 128.526 449 129.396 449 130.466V157.52C449 158.59 449.87 159.46 450.939 159.46H457.114C457.051 159.806 457.016 160.162 457.016 160.526C457.016 163.806 459.684 166.474 462.964 166.474C466.243 166.474 468.911 163.806 468.911 160.526C468.911 160.162 468.877 159.806 468.814 159.46H497.195C497.132 159.806 497.097 160.162 497.097 160.526C497.097 163.806 499.765 166.474 503.045 166.474C506.324 166.474 508.992 163.806 508.992 160.526C508.992 160.063 508.937 159.612 508.837 159.179L510.82 158.188C512.165 157.515 513 156.164 513 154.66V148.944C513 147.676 512.192 146.555 510.989 146.154ZM450.875 130.466C450.875 130.43 450.904 130.401 450.939 130.401H487.012C487.048 130.401 487.077 130.43 487.077 130.466V150.57H450.875V130.466ZM462.964 164.599C460.718 164.599 458.891 162.772 458.891 160.526C458.891 158.281 460.718 156.454 462.964 156.454C465.209 156.454 467.036 158.281 467.036 160.526C467.036 162.772 465.209 164.599 462.964 164.599ZM487.077 157.585H468.13C467.104 155.791 465.174 154.579 462.964 154.579C460.754 154.579 458.823 155.791 457.798 157.585H450.939C450.904 157.585 450.875 157.556 450.875 157.52V152.445H487.077V157.585ZM499.837 138.417L501.706 143.556H499.693L497.824 138.417H499.837ZM488.952 134.409H497.633C498.08 134.409 498.482 134.691 498.635 135.111L499.155 136.542H488.952V134.409ZM488.952 138.417H495.829L497.698 143.556H488.952V138.417ZM503.044 164.599C500.799 164.599 498.972 162.772 498.972 160.526C498.972 158.281 500.799 156.454 503.044 156.454C505.29 156.454 507.117 158.281 507.117 160.526C507.117 162.772 505.29 164.599 503.044 164.599ZM511.125 150.57H510.058C509.541 150.57 509.121 150.99 509.121 151.508C509.121 152.026 509.541 152.445 510.058 152.445H511.125V154.66C511.125 155.449 510.687 156.158 509.982 156.51L508.126 157.438C507.081 155.725 505.194 154.579 503.044 154.579C500.835 154.579 498.904 155.791 497.878 157.585H488.952V152.445H506.05C506.568 152.445 506.988 152.026 506.988 151.508C506.988 150.99 506.568 150.57 506.05 150.57H488.952V145.431H502.892L510.396 147.932C510.832 148.078 511.125 148.484 511.125 148.944V150.57Z" fill="#272343"/>
<path d="M480.463 139.672L473.449 135.664C473 135.407 472.427 135.563 472.17 136.013C471.913 136.462 472.069 137.035 472.519 137.292L476.468 139.548H457.954C457.436 139.548 457.016 139.968 457.016 140.486C457.016 141.004 457.436 141.423 457.954 141.423H476.468L472.519 143.68C472.069 143.937 471.913 144.509 472.17 144.959C472.343 145.262 472.659 145.432 472.985 145.432C473.143 145.432 473.302 145.392 473.449 145.308L480.463 141.3C480.755 141.133 480.936 140.822 480.936 140.486C480.936 140.149 480.755 139.839 480.463 139.672Z" fill="#272343"/>
<path d="M530.438 143H532.413V137.292H537.974V135.598H532.413V131.609H538.556V129.909H530.438V143ZM540.709 143H542.62V137.004C542.62 135.719 543.611 134.793 544.966 134.793C545.362 134.793 545.809 134.863 545.963 134.908V133.08C545.771 133.054 545.394 133.035 545.151 133.035C544.001 133.035 543.016 133.687 542.658 134.741H542.556V133.182H540.709V143ZM551.497 143.198C553.638 143.198 555.153 142.143 555.588 140.545L553.779 140.219C553.434 141.146 552.603 141.619 551.516 141.619C549.88 141.619 548.78 140.558 548.729 138.666H555.709V137.989C555.709 134.441 553.587 133.054 551.363 133.054C548.627 133.054 546.824 135.138 546.824 138.155C546.824 141.204 548.601 143.198 551.497 143.198ZM548.735 137.234C548.812 135.841 549.822 134.633 551.375 134.633C552.858 134.633 553.83 135.732 553.836 137.234H548.735ZM562.061 143.198C564.203 143.198 565.718 142.143 566.152 140.545L564.343 140.219C563.998 141.146 563.167 141.619 562.08 141.619C560.444 141.619 559.345 140.558 559.294 138.666H566.274V137.989C566.274 134.441 564.151 133.054 561.927 133.054C559.191 133.054 557.389 135.138 557.389 138.155C557.389 141.204 559.166 143.198 562.061 143.198ZM559.3 137.234C559.377 135.841 560.387 134.633 561.94 134.633C563.423 134.633 564.394 135.732 564.401 137.234H559.3ZM577.549 143C581.538 143 583.845 140.526 583.845 136.435C583.845 132.364 581.538 129.909 577.683 129.909H573.311V143H577.549ZM575.286 141.274V131.635H577.562C580.426 131.635 581.902 133.348 581.902 136.435C581.902 139.536 580.426 141.274 577.441 141.274H575.286ZM590.38 143.198C592.521 143.198 594.036 142.143 594.471 140.545L592.662 140.219C592.316 141.146 591.485 141.619 590.399 141.619C588.762 141.619 587.663 140.558 587.612 138.666H594.592V137.989C594.592 134.441 592.47 133.054 590.245 133.054C587.51 133.054 585.707 135.138 585.707 138.155C585.707 141.204 587.484 143.198 590.38 143.198ZM587.618 137.234C587.695 135.841 588.705 134.633 590.258 134.633C591.741 134.633 592.713 135.732 592.719 137.234H587.618ZM598.624 129.909H596.713V143H598.624V129.909ZM601.195 143H603.106V133.182H601.195V143ZM602.16 131.667C602.819 131.667 603.368 131.156 603.368 130.529C603.368 129.903 602.819 129.385 602.16 129.385C601.495 129.385 600.952 129.903 600.952 130.529C600.952 131.156 601.495 131.667 602.16 131.667ZM614.077 133.182H612.025L609.545 140.737H609.442L606.956 133.182H604.904L608.471 143H610.516L614.077 133.182ZM619.753 143.198C621.894 143.198 623.409 142.143 623.844 140.545L622.035 140.219C621.689 141.146 620.858 141.619 619.772 141.619C618.135 141.619 617.036 140.558 616.985 138.666H623.965V137.989C623.965 134.441 621.843 133.054 619.618 133.054C616.883 133.054 615.08 135.138 615.08 138.155C615.08 141.204 616.857 143.198 619.753 143.198ZM616.991 137.234C617.068 135.841 618.078 134.633 619.631 134.633C621.114 134.633 622.086 135.732 622.092 137.234H616.991ZM626.086 143H627.997V137.004C627.997 135.719 628.988 134.793 630.343 134.793C630.739 134.793 631.186 134.863 631.34 134.908V133.08C631.148 133.054 630.771 133.035 630.528 133.035C629.377 133.035 628.393 133.687 628.035 134.741H627.933V133.182H626.086V143ZM634.501 146.682C636.08 146.682 637.077 145.857 637.646 144.31L641.705 133.201L639.64 133.182L637.153 140.801H637.051L634.565 133.182H632.519L636.112 143.128L635.875 143.78C635.389 145.084 634.705 145.192 633.657 144.905L633.197 146.471C633.427 146.573 633.925 146.682 634.501 146.682Z" fill="#272343"/>
<path d="M533.964 155.091H532.643L529.916 156.902V158.244L532.58 156.476H532.643V166H533.964V155.091ZM540.66 166.149C543.068 166.149 544.453 164.109 544.453 160.545C544.453 157.009 543.047 154.942 540.66 154.942C538.274 154.942 536.868 157.009 536.868 160.545C536.868 164.109 538.252 166.149 540.66 166.149ZM540.66 164.977C539.073 164.977 538.146 163.385 538.146 160.545C538.146 157.712 539.083 156.092 540.66 156.092C542.237 156.092 543.174 157.712 543.174 160.545C543.174 163.385 542.248 164.977 540.66 164.977ZM550.035 166.149C552.443 166.149 553.828 164.109 553.828 160.545C553.828 157.009 552.422 154.942 550.035 154.942C547.649 154.942 546.243 157.009 546.243 160.545C546.243 164.109 547.627 166.149 550.035 166.149ZM550.035 164.977C548.448 164.977 547.521 163.385 547.521 160.545C547.521 157.712 548.458 156.092 550.035 156.092C551.612 156.092 552.549 157.712 552.549 160.545C552.549 163.385 551.623 164.977 550.035 164.977ZM561.413 163.955C561.413 165.148 562.159 166.149 563.544 166.149C564.907 166.149 565.653 165.148 565.653 163.955V163.379C565.653 162.186 564.929 161.185 563.544 161.185C562.18 161.185 561.413 162.186 561.413 163.379V163.955ZM555.98 157.712C555.98 158.905 556.725 159.906 558.11 159.906C559.474 159.906 560.22 158.905 560.22 157.712V157.136C560.22 155.943 559.495 154.942 558.11 154.942C556.747 154.942 555.98 155.943 555.98 157.136V157.712ZM556.385 166H557.599L565.099 155.091H563.885L556.385 166ZM562.5 163.379C562.5 162.719 562.798 162.101 563.544 162.101C564.311 162.101 564.566 162.719 564.566 163.379V163.955C564.566 164.615 564.289 165.233 563.544 165.233C562.777 165.233 562.5 164.615 562.5 163.955V163.379ZM557.066 157.136C557.066 156.476 557.365 155.858 558.11 155.858C558.877 155.858 559.133 156.476 559.133 157.136V157.712C559.133 158.372 558.856 158.99 558.11 158.99C557.343 158.99 557.066 158.372 557.066 157.712V157.136ZM572.45 166H573.771V161.121H578.501V159.949H573.771V156.263H578.991V155.091H572.45V166ZM580.995 166H582.252V160.822C582.252 159.714 583.126 158.905 584.319 158.905C584.655 158.905 585.001 158.969 585.086 158.99V157.712C584.942 157.701 584.612 157.69 584.426 157.69C583.446 157.69 582.593 158.244 582.295 159.054H582.21V157.818H580.995V166ZM589.758 166.17C591.42 166.17 592.634 165.339 593.018 164.104L591.803 163.763C591.484 164.615 590.743 165.041 589.758 165.041C588.282 165.041 587.265 164.088 587.206 162.335H593.146V161.803C593.146 158.756 591.334 157.712 589.63 157.712C587.414 157.712 585.944 159.459 585.944 161.973C585.944 164.487 587.393 166.17 589.758 166.17ZM587.206 161.249C587.291 159.975 588.192 158.841 589.63 158.841C590.994 158.841 591.867 159.864 591.867 161.249H587.206ZM598.488 166.17C600.15 166.17 601.365 165.339 601.748 164.104L600.534 163.763C600.214 164.615 599.474 165.041 598.488 165.041C597.013 165.041 595.995 164.088 595.937 162.335H601.876V161.803C601.876 158.756 600.065 157.712 598.36 157.712C596.144 157.712 594.674 159.459 594.674 161.973C594.674 164.487 596.123 166.17 598.488 166.17ZM595.937 161.249C596.022 159.975 596.922 158.841 598.36 158.841C599.724 158.841 600.598 159.864 600.598 161.249H595.937ZM611.65 157.818H609.818V156.987C609.818 156.178 610.159 155.751 610.99 155.751C611.352 155.751 611.565 155.837 611.693 155.879L612.055 154.793C611.864 154.707 611.48 154.58 610.862 154.58C609.69 154.58 608.561 155.283 608.561 156.689V157.818H607.24V158.884H608.561V166H609.818V158.884H611.65V157.818ZM616.399 166.17C618.615 166.17 620.107 164.487 620.107 161.952C620.107 159.395 618.615 157.712 616.399 157.712C614.183 157.712 612.692 159.395 612.692 161.952C612.692 164.487 614.183 166.17 616.399 166.17ZM616.399 165.041C614.716 165.041 613.949 163.592 613.949 161.952C613.949 160.311 614.716 158.841 616.399 158.841C618.082 158.841 618.85 160.311 618.85 161.952C618.85 163.592 618.082 165.041 616.399 165.041ZM622.026 166H623.283V160.822C623.283 159.714 624.156 158.905 625.349 158.905C625.685 158.905 626.031 158.969 626.116 158.99V157.712C625.973 157.701 625.642 157.69 625.456 157.69C624.476 157.69 623.624 158.244 623.325 159.054H623.24V157.818H622.026V166ZM634.233 166.192C635.661 166.192 636.406 165.425 636.662 164.892H636.726V166H637.983V160.609C637.983 158.01 636.002 157.712 634.957 157.712C633.722 157.712 632.315 158.138 631.676 159.629L632.869 160.055C633.146 159.459 633.802 158.82 635 158.82C636.156 158.82 636.726 159.432 636.726 160.482V160.524C636.726 161.131 636.108 161.078 634.617 161.27C633.098 161.467 631.442 161.803 631.442 163.678C631.442 165.276 632.678 166.192 634.233 166.192ZM634.425 165.062C633.423 165.062 632.699 164.615 632.699 163.741C632.699 162.783 633.573 162.484 634.553 162.357C635.085 162.293 636.513 162.143 636.726 161.888V163.038C636.726 164.061 635.916 165.062 634.425 165.062ZM641.535 155.091H640.278V166H641.535V155.091ZM645.094 155.091H643.837V166H645.094V155.091ZM654.939 166.17C657.155 166.17 658.647 164.487 658.647 161.952C658.647 159.395 657.155 157.712 654.939 157.712C652.723 157.712 651.232 159.395 651.232 161.952C651.232 164.487 652.723 166.17 654.939 166.17ZM654.939 165.041C653.256 165.041 652.489 163.592 652.489 161.952C652.489 160.311 653.256 158.841 654.939 158.841C656.623 158.841 657.39 160.311 657.39 161.952C657.39 163.592 656.623 165.041 654.939 165.041ZM660.566 166H661.823V160.822C661.823 159.714 662.696 158.905 663.889 158.905C664.225 158.905 664.571 158.969 664.657 158.99V157.712C664.513 157.701 664.182 157.69 663.996 157.69C663.016 157.69 662.164 158.244 661.865 159.054H661.78V157.818H660.566V166ZM668.987 166.17C670.564 166.17 671.097 165.19 671.373 164.743H671.523V166H672.737V155.091H671.48V159.118H671.373C671.097 158.692 670.606 157.712 669.008 157.712C666.942 157.712 665.514 159.352 665.514 161.93C665.514 164.53 666.942 166.17 668.987 166.17ZM669.158 165.041C667.581 165.041 666.771 163.656 666.771 161.909C666.771 160.183 667.56 158.841 669.158 158.841C670.692 158.841 671.501 160.077 671.501 161.909C671.501 163.763 670.67 165.041 669.158 165.041ZM678.644 166.17C680.306 166.17 681.521 165.339 681.904 164.104L680.69 163.763C680.37 164.615 679.63 165.041 678.644 165.041C677.169 165.041 676.152 164.088 676.093 162.335H682.032V161.803C682.032 158.756 680.221 157.712 678.517 157.712C676.301 157.712 674.831 159.459 674.831 161.973C674.831 164.487 676.279 166.17 678.644 166.17ZM676.093 161.249C676.178 159.975 677.078 158.841 678.517 158.841C679.88 158.841 680.754 159.864 680.754 161.249H676.093ZM683.945 166H685.202V160.822C685.202 159.714 686.075 158.905 687.268 158.905C687.604 158.905 687.95 158.969 688.035 158.99V157.712C687.892 157.701 687.561 157.69 687.375 157.69C686.395 157.69 685.543 158.244 685.244 159.054H685.159V157.818H683.945V166ZM695.321 159.651C694.927 158.489 694.043 157.712 692.423 157.712C690.697 157.712 689.419 158.692 689.419 160.077C689.419 161.206 690.09 161.962 691.592 162.314L692.956 162.634C693.782 162.825 694.17 163.219 694.17 163.784C694.17 164.487 693.425 165.062 692.253 165.062C691.225 165.062 690.58 164.62 690.357 163.741L689.163 164.04C689.456 165.43 690.602 166.17 692.274 166.17C694.176 166.17 695.47 165.132 695.47 163.72C695.47 162.58 694.756 161.861 693.297 161.504L692.082 161.206C691.113 160.966 690.676 160.641 690.676 160.013C690.676 159.31 691.422 158.798 692.423 158.798C693.521 158.798 693.973 159.406 694.192 159.97L695.321 159.651Z" fill="#9A9CAA"/>
<g clip-path="url(#clip1_1_543)">
<path d="M804.594 140.285C804.42 139.92 803.983 139.764 803.618 139.938C803.252 140.111 803.097 140.548 803.271 140.914C804.773 144.077 805.535 147.471 805.535 151C805.535 157.287 803.087 163.197 798.642 167.642C794.197 172.087 788.287 174.535 782 174.535C778.272 174.535 774.706 173.689 771.403 172.021C768.651 170.63 766.164 168.678 764.145 166.332L767.035 167.296C767.418 167.424 767.833 167.216 767.961 166.832C768.089 166.449 767.882 166.034 767.498 165.906L762.298 164.172C762.057 164.092 761.791 164.142 761.597 164.305C761.402 164.468 761.305 164.72 761.341 164.971L762.208 171.038C762.26 171.403 762.573 171.667 762.932 171.667C762.966 171.667 763.001 171.664 763.036 171.659C763.437 171.602 763.715 171.231 763.658 170.831L763.174 167.446C765.293 169.866 767.882 171.883 770.743 173.328C774.253 175.101 778.04 176 782 176C788.678 176 794.956 173.4 799.678 168.678C804.4 163.956 807 157.678 807 151C807 147.251 806.19 143.646 804.594 140.285Z" fill="#272343"/>
<path d="M802.659 137.029L801.792 130.962C801.735 130.562 801.363 130.284 800.964 130.341C800.563 130.398 800.285 130.769 800.342 131.17L800.825 134.551C796.069 129.102 789.279 126 782 126C775.322 126 769.044 128.6 764.322 133.322C759.6 138.044 757 144.322 757 151C757 154.749 757.81 158.354 759.406 161.715C759.532 161.979 759.794 162.133 760.068 162.133C760.174 162.133 760.281 162.11 760.382 162.062C760.748 161.889 760.903 161.452 760.729 161.086C759.227 157.923 758.465 154.53 758.465 151C758.465 144.713 760.913 138.803 765.358 134.358C769.803 129.913 775.713 127.465 782 127.465C788.92 127.465 795.369 130.443 799.853 135.667L796.966 134.705C796.582 134.576 796.167 134.784 796.039 135.168C795.911 135.552 796.118 135.966 796.502 136.094L801.702 137.828C801.778 137.853 801.856 137.865 801.934 137.865C802.103 137.865 802.27 137.807 802.403 137.695C802.598 137.533 802.695 137.281 802.659 137.029Z" fill="#272343"/>
<path d="M779.965 158.879H772.597C772.891 156.315 774.713 154.595 776.632 152.783C778.63 150.896 780.697 148.945 780.697 146.015C780.697 143.612 778.542 141.656 775.894 141.656C773.245 141.656 771.091 143.612 771.091 146.015C771.091 146.419 771.419 146.747 771.823 146.747C772.228 146.747 772.556 146.419 772.556 146.015C772.556 144.419 774.053 143.121 775.894 143.121C777.735 143.121 779.232 144.419 779.232 146.015C779.232 148.313 777.481 149.967 775.626 151.718C773.5 153.726 771.091 156.001 771.091 159.611C771.091 160.016 771.419 160.344 771.823 160.344H779.965C780.369 160.344 780.697 160.016 780.697 159.611C780.697 159.207 780.369 158.879 779.965 158.879Z" fill="#272343"/>
<path d="M792.177 154.182H791.344V142.389C791.344 141.984 791.016 141.656 790.611 141.656C790.206 141.656 789.879 141.984 789.879 142.389V154.182H783.665L785.851 142.524C785.926 142.126 785.664 141.744 785.266 141.669C784.869 141.595 784.486 141.856 784.411 142.254L782.063 154.779C782.023 154.993 782.08 155.214 782.219 155.382C782.358 155.55 782.565 155.647 782.783 155.647H789.879V159.611C789.879 160.015 790.206 160.343 790.611 160.343C791.016 160.343 791.344 160.015 791.344 159.611V155.646H792.177C792.581 155.646 792.909 155.319 792.909 154.914C792.909 154.51 792.581 154.182 792.177 154.182Z" fill="#272343"/>
<path d="M782 129.914C781.596 129.914 781.268 130.242 781.268 130.646V133.778C781.268 134.182 781.596 134.51 782 134.51C782.405 134.51 782.732 134.182 782.732 133.778V130.646C782.732 130.242 782.405 129.914 782 129.914Z" fill="#272343"/>
<path d="M782 167.49C781.596 167.49 781.268 167.818 781.268 168.222V171.353C781.268 171.758 781.596 172.086 782 172.086C782.405 172.086 782.732 171.758 782.732 171.353V168.222C782.732 167.818 782.405 167.49 782 167.49Z" fill="#272343"/>
<path d="M802.353 150.268H799.222C798.817 150.268 798.49 150.596 798.49 151C798.49 151.404 798.817 151.732 799.222 151.732H802.353C802.758 151.732 803.086 151.404 803.086 151C803.086 150.596 802.758 150.268 802.353 150.268Z" fill="#272343"/>
<path d="M764.778 150.268H761.647C761.242 150.268 760.914 150.596 760.914 151C760.914 151.404 761.242 151.732 761.647 151.732H764.778C765.182 151.732 765.51 151.404 765.51 151C765.51 150.596 765.182 150.268 764.778 150.268Z" fill="#272343"/>
</g>
<path d="M833.298 137.545H835.324C834.883 134.994 832.703 133.23 829.878 133.23C826.49 133.23 824.016 135.781 824.016 139.961C824.016 144.103 826.42 146.679 829.967 146.679C833.144 146.679 835.413 144.595 835.413 141.29V139.801H830.268V141.431H833.502C833.457 143.54 832.064 144.876 829.967 144.876C827.66 144.876 825.979 143.131 825.979 139.948C825.979 136.778 827.673 135.033 829.891 135.033C831.629 135.033 832.805 135.991 833.298 137.545ZM837.767 146.5H839.678V140.504C839.678 139.219 840.669 138.293 842.024 138.293C842.421 138.293 842.868 138.363 843.021 138.408V136.58C842.83 136.554 842.453 136.535 842.21 136.535C841.059 136.535 840.075 137.187 839.717 138.241H839.615V136.682H837.767V146.5ZM848.555 146.698C850.697 146.698 852.212 145.643 852.646 144.045L850.837 143.719C850.492 144.646 849.661 145.119 848.575 145.119C846.938 145.119 845.839 144.058 845.788 142.166H852.768V141.489C852.768 137.941 850.646 136.554 848.421 136.554C845.685 136.554 843.883 138.638 843.883 141.655C843.883 144.704 845.66 146.698 848.555 146.698ZM845.794 140.734C845.871 139.341 846.881 138.133 848.434 138.133C849.917 138.133 850.888 139.232 850.895 140.734H845.794ZM857.746 146.717C859.369 146.717 860.283 145.893 860.648 145.158H860.724V146.5H862.591V139.98C862.591 137.123 860.341 136.554 858.781 136.554C857.004 136.554 855.368 137.27 854.729 139.06L856.525 139.469C856.806 138.772 857.522 138.101 858.807 138.101C860.04 138.101 860.673 138.746 860.673 139.859V139.903C860.673 140.6 859.957 140.587 858.193 140.792C856.333 141.009 854.428 141.495 854.428 143.726C854.428 145.656 855.879 146.717 857.746 146.717ZM858.161 145.183C857.081 145.183 856.301 144.697 856.301 143.751C856.301 142.729 857.209 142.364 858.314 142.217C858.934 142.134 860.405 141.968 860.68 141.693V142.959C860.68 144.122 859.753 145.183 858.161 145.183ZM869.719 136.682H867.706V134.33H865.795V136.682H864.357V138.216H865.795V144.013C865.788 145.797 867.15 146.66 868.658 146.628C869.266 146.621 869.675 146.506 869.898 146.423L869.553 144.844C869.425 144.87 869.189 144.928 868.882 144.928C868.262 144.928 867.706 144.723 867.706 143.617V138.216H869.719V136.682ZM883.891 136.848H885.795C885.738 134.751 883.884 133.23 881.225 133.23C878.598 133.23 876.585 134.732 876.585 136.989C876.585 138.81 877.888 139.878 879.991 140.447L881.538 140.869C882.938 141.239 884.018 141.7 884.018 142.863C884.018 144.141 882.798 144.985 881.116 144.985C879.595 144.985 878.33 144.308 878.214 142.882H876.233C876.361 145.254 878.195 146.717 881.129 146.717C884.204 146.717 885.974 145.1 885.974 142.882C885.974 140.523 883.871 139.609 882.21 139.2L880.931 138.868C879.908 138.606 878.547 138.126 878.553 136.874C878.553 135.761 879.57 134.937 881.18 134.937C882.683 134.937 883.75 135.64 883.891 136.848ZM894.401 142.428C894.407 144.097 893.167 144.889 892.093 144.889C890.911 144.889 890.093 144.033 890.093 142.697V136.682H888.181V142.927C888.181 145.362 889.517 146.628 891.403 146.628C892.879 146.628 893.883 145.848 894.337 144.8H894.439V146.5H896.318V136.682H894.401V142.428ZM898.886 150.182H900.798V144.972H900.913C901.258 145.599 901.961 146.692 903.751 146.692C906.129 146.692 907.854 144.787 907.854 141.61C907.854 138.427 906.103 136.554 903.732 136.554C901.91 136.554 901.251 137.666 900.913 138.273H900.753V136.682H898.886V150.182ZM900.759 141.591C900.759 139.539 901.654 138.178 903.322 138.178C905.055 138.178 905.924 139.641 905.924 141.591C905.924 143.56 905.029 145.062 903.322 145.062C901.68 145.062 900.759 143.656 900.759 141.591ZM909.996 150.182H911.907V144.972H912.022C912.367 145.599 913.07 146.692 914.86 146.692C917.238 146.692 918.964 144.787 918.964 141.61C918.964 138.427 917.212 136.554 914.841 136.554C913.019 136.554 912.361 137.666 912.022 138.273H911.862V136.682H909.996V150.182ZM911.869 141.591C911.869 139.539 912.763 138.178 914.432 138.178C916.164 138.178 917.033 139.641 917.033 141.591C917.033 143.56 916.138 145.062 914.432 145.062C912.789 145.062 911.869 143.656 911.869 141.591ZM925.241 146.698C928.009 146.698 929.817 144.672 929.817 141.636C929.817 138.58 928.009 136.554 925.241 136.554C922.473 136.554 920.664 138.58 920.664 141.636C920.664 144.672 922.473 146.698 925.241 146.698ZM925.247 145.094C923.438 145.094 922.594 143.515 922.594 141.629C922.594 139.75 923.438 138.152 925.247 138.152C927.043 138.152 927.887 139.75 927.887 141.629C927.887 143.515 927.043 145.094 925.247 145.094ZM931.951 146.5H933.862V140.504C933.862 139.219 934.853 138.293 936.208 138.293C936.604 138.293 937.052 138.363 937.205 138.408V136.58C937.013 136.554 936.636 136.535 936.393 136.535C935.243 136.535 934.258 137.187 933.9 138.241H933.798V136.682H931.951V146.5ZM944.022 136.682H942.009V134.33H940.097V136.682H938.659V138.216H940.097V144.013C940.091 145.797 941.453 146.66 942.961 146.628C943.568 146.621 943.977 146.506 944.201 146.423L943.856 144.844C943.728 144.87 943.492 144.928 943.185 144.928C942.565 144.928 942.009 144.723 942.009 143.617V138.216H944.022V136.682ZM950.874 146.5H959.491V144.806H953.597V144.71L956.199 141.987C958.596 139.565 959.28 138.408 959.28 136.944C959.28 134.841 957.567 133.23 955.1 133.23C952.651 133.23 950.862 134.815 950.862 137.206H952.747C952.741 135.8 953.649 134.879 955.061 134.879C956.391 134.879 957.401 135.697 957.401 137.001C957.401 138.158 956.71 138.989 955.304 140.479L950.874 145.068V146.5ZM961.357 143.943H967.564V146.5H969.45V143.943H971.182V142.268H969.45V133.409H967.014L961.357 142.345V143.943ZM967.577 142.268H963.428V142.166L967.475 135.761H967.577V142.268ZM978.421 132.795H976.714L972.496 148.469H974.202L978.421 132.795ZM980.46 146.5H982.525L988.22 135.161V133.409H979.565V135.103H986.175V135.199L980.46 146.5Z" fill="#272343"/>
<path d="M826.303 169.5H827.666L830.074 160.807H830.159L832.567 169.5H833.93L836.913 158.591H835.571L833.291 167.476H833.185L830.862 158.591H829.371L827.048 167.476H826.942L824.662 158.591H823.32L826.303 169.5ZM841.058 169.67C842.719 169.67 843.934 168.839 844.317 167.604L843.103 167.263C842.783 168.115 842.043 168.541 841.058 168.541C839.582 168.541 838.565 167.588 838.506 165.835H844.445V165.303C844.445 162.256 842.634 161.212 840.93 161.212C838.714 161.212 837.244 162.959 837.244 165.473C837.244 167.987 838.692 169.67 841.058 169.67ZM838.506 164.749C838.591 163.475 839.491 162.341 840.93 162.341C842.293 162.341 843.167 163.364 843.167 164.749H838.506ZM853.9 169.67C855.711 169.67 856.904 168.562 857.118 167.114H855.86C855.626 168.009 854.88 168.541 853.9 168.541C852.409 168.541 851.45 167.305 851.45 165.409C851.45 163.555 852.43 162.341 853.9 162.341C855.008 162.341 855.669 163.023 855.86 163.768H857.118C856.904 162.234 855.605 161.212 853.879 161.212C851.663 161.212 850.193 162.959 850.193 165.452C850.193 167.902 851.599 169.67 853.9 169.67ZM861.363 169.692C862.79 169.692 863.536 168.925 863.792 168.392H863.856V169.5H865.113V164.109C865.113 161.51 863.131 161.212 862.087 161.212C860.852 161.212 859.445 161.638 858.806 163.129L859.999 163.555C860.276 162.959 860.931 162.32 862.13 162.32C863.286 162.32 863.856 162.932 863.856 163.982V164.024C863.856 164.631 863.238 164.578 861.746 164.77C860.228 164.967 858.572 165.303 858.572 167.178C858.572 168.776 859.808 169.692 861.363 169.692ZM861.555 168.562C860.553 168.562 859.829 168.115 859.829 167.241C859.829 166.283 860.702 165.984 861.683 165.857C862.215 165.793 863.643 165.643 863.856 165.388V166.538C863.856 167.561 863.046 168.562 861.555 168.562ZM867.407 169.5H868.665V164.322C868.665 163.214 869.538 162.405 870.731 162.405C871.067 162.405 871.413 162.469 871.498 162.49V161.212C871.354 161.201 871.024 161.19 870.838 161.19C869.858 161.19 869.005 161.744 868.707 162.554H868.622V161.318H867.407V169.5ZM876.17 169.67C877.832 169.67 879.046 168.839 879.43 167.604L878.215 167.263C877.896 168.115 877.155 168.541 876.17 168.541C874.694 168.541 873.677 167.588 873.618 165.835H879.558V165.303C879.558 162.256 877.747 161.212 876.042 161.212C873.826 161.212 872.356 162.959 872.356 165.473C872.356 167.987 873.805 169.67 876.17 169.67ZM873.618 164.749C873.704 163.475 874.604 162.341 876.042 162.341C877.406 162.341 878.279 163.364 878.279 164.749H873.618ZM886.498 172.568C887.633 172.568 888.432 171.966 888.906 170.693L892.39 161.339L891.015 161.318L888.757 167.838H888.672L886.413 161.318H885.049L888.075 169.543L887.841 170.182C887.383 171.428 886.818 171.545 885.902 171.311L885.582 172.419C885.71 172.483 886.072 172.568 886.498 172.568ZM897.084 169.67C899.3 169.67 900.791 167.987 900.791 165.452C900.791 162.895 899.3 161.212 897.084 161.212C894.868 161.212 893.376 162.895 893.376 165.452C893.376 167.987 894.868 169.67 897.084 169.67ZM897.084 168.541C895.401 168.541 894.634 167.092 894.634 165.452C894.634 163.811 895.401 162.341 897.084 162.341C898.767 162.341 899.534 163.811 899.534 165.452C899.534 167.092 898.767 168.541 897.084 168.541ZM907.866 166.155C907.866 167.689 906.695 168.392 905.757 168.392C904.713 168.392 903.967 167.625 903.967 166.432V161.318H902.71V166.517C902.71 168.605 903.818 169.607 905.352 169.607C906.588 169.607 907.398 168.946 907.781 168.115H907.866V169.5H909.123V161.318H907.866V166.155ZM911.426 169.5H912.683V164.322C912.683 163.214 913.557 162.405 914.75 162.405C915.085 162.405 915.432 162.469 915.517 162.49V161.212C915.373 161.201 915.043 161.19 914.856 161.19C913.876 161.19 913.024 161.744 912.726 162.554H912.64V161.318H911.426V169.5ZM924.656 169.67C926.318 169.67 927.533 168.839 927.916 167.604L926.702 167.263C926.382 168.115 925.642 168.541 924.656 168.541C923.181 168.541 922.163 167.588 922.105 165.835H928.044V165.303C928.044 162.256 926.233 161.212 924.528 161.212C922.312 161.212 920.842 162.959 920.842 165.473C920.842 167.987 922.291 169.67 924.656 169.67ZM922.105 164.749C922.19 163.475 923.09 162.341 924.528 162.341C925.892 162.341 926.766 163.364 926.766 164.749H922.105ZM930.674 161.318H929.225L931.825 165.409L929.225 169.5H930.674L932.634 166.325L934.594 169.5H936.043L933.401 165.409L936.043 161.318H934.594L932.634 164.663L930.674 161.318ZM937.837 172.568H939.094V168.243H939.201C939.478 168.69 940.01 169.67 941.587 169.67C943.633 169.67 945.06 168.03 945.06 165.43C945.06 162.852 943.633 161.212 941.566 161.212C939.968 161.212 939.478 162.192 939.201 162.618H939.052V161.318H937.837V172.568ZM939.073 165.409C939.073 163.577 939.883 162.341 941.417 162.341C943.015 162.341 943.803 163.683 943.803 165.409C943.803 167.156 942.993 168.541 941.417 168.541C939.904 168.541 939.073 167.263 939.073 165.409ZM950.408 169.67C952.07 169.67 953.285 168.839 953.668 167.604L952.454 167.263C952.134 168.115 951.394 168.541 950.408 168.541C948.933 168.541 947.915 167.588 947.857 165.835H953.796V165.303C953.796 162.256 951.985 161.212 950.28 161.212C948.064 161.212 946.594 162.959 946.594 165.473C946.594 167.987 948.043 169.67 950.408 169.67ZM947.857 164.749C947.942 163.475 948.842 162.341 950.28 162.341C951.644 162.341 952.517 163.364 952.517 164.749H947.857ZM955.708 169.5H956.965V164.322C956.965 163.214 957.839 162.405 959.032 162.405C959.368 162.405 959.714 162.469 959.799 162.49V161.212C959.655 161.201 959.325 161.19 959.139 161.19C958.158 161.19 957.306 161.744 957.008 162.554H956.923V161.318H955.708V169.5ZM961.289 169.5H962.546V161.318H961.289V169.5ZM961.928 159.955C962.419 159.955 962.823 159.571 962.823 159.102C962.823 158.634 962.419 158.25 961.928 158.25C961.438 158.25 961.034 158.634 961.034 159.102C961.034 159.571 961.438 159.955 961.928 159.955ZM968.279 169.67C969.941 169.67 971.156 168.839 971.539 167.604L970.325 167.263C970.005 168.115 969.265 168.541 968.279 168.541C966.804 168.541 965.786 167.588 965.728 165.835H971.667V165.303C971.667 162.256 969.856 161.212 968.151 161.212C965.935 161.212 964.465 162.959 964.465 165.473C964.465 167.987 965.914 169.67 968.279 169.67ZM965.728 164.749C965.813 163.475 966.713 162.341 968.151 162.341C969.515 162.341 970.389 163.364 970.389 164.749H965.728ZM974.836 164.578C974.836 163.151 975.721 162.341 976.924 162.341C978.091 162.341 978.799 163.103 978.799 164.386V169.5H980.057V164.301C980.057 162.213 978.943 161.212 977.287 161.212C976.051 161.212 975.284 161.766 974.9 162.597H974.794V161.318H973.579V169.5H974.836V164.578ZM985.678 169.67C987.489 169.67 988.682 168.562 988.895 167.114H987.638C987.403 168.009 986.658 168.541 985.678 168.541C984.186 168.541 983.227 167.305 983.227 165.409C983.227 163.555 984.207 162.341 985.678 162.341C986.786 162.341 987.446 163.023 987.638 163.768H988.895C988.682 162.234 987.382 161.212 985.656 161.212C983.44 161.212 981.97 162.959 981.97 165.452C981.97 167.902 983.376 169.67 985.678 169.67ZM994.163 169.67C995.825 169.67 997.039 168.839 997.423 167.604L996.208 167.263C995.889 168.115 995.148 168.541 994.163 168.541C992.688 168.541 991.67 167.588 991.612 165.835H997.551V165.303C997.551 162.256 995.74 161.212 994.035 161.212C991.819 161.212 990.349 162.959 990.349 165.473C990.349 167.987 991.798 169.67 994.163 169.67ZM991.612 164.749C991.697 163.475 992.597 162.341 994.035 162.341C995.399 162.341 996.272 163.364 996.272 164.749H991.612ZM1005.26 163.151C1004.86 161.989 1003.98 161.212 1002.36 161.212C1000.63 161.212 999.357 162.192 999.357 163.577C999.357 164.706 1000.03 165.462 1001.53 165.814L1002.89 166.134C1003.72 166.325 1004.11 166.719 1004.11 167.284C1004.11 167.987 1003.36 168.562 1002.19 168.562C1001.16 168.562 1000.52 168.12 1000.29 167.241L999.101 167.54C999.394 168.93 1000.54 169.67 1002.21 169.67C1004.11 169.67 1005.41 168.632 1005.41 167.22C1005.41 166.08 1004.69 165.361 1003.23 165.004L1002.02 164.706C1001.05 164.466 1000.61 164.141 1000.61 163.513C1000.61 162.81 1001.36 162.298 1002.36 162.298C1003.46 162.298 1003.91 162.906 1004.13 163.47L1005.26 163.151Z" fill="#9A9CAA"/>
<g clip-path="url(#clip2_1_543)">
<path d="M1116.22 132.956C1116.2 132.639 1115.98 132.369 1115.68 132.288L1092.17 126.025C1092.05 125.992 1091.92 125.992 1091.79 126.025L1068.32 132.288C1068.02 132.37 1067.8 132.639 1067.78 132.955C1067.77 133.248 1067.41 140.233 1070.16 149.064C1071.78 154.254 1074.13 158.993 1077.17 163.148C1080.96 168.347 1085.83 172.639 1091.63 175.906C1091.74 175.969 1091.87 176 1091.99 176C1092.11 176 1092.23 175.971 1092.33 175.914C1098.15 172.826 1103.02 168.643 1106.82 163.481C1109.86 159.356 1112.22 154.604 1113.84 149.355C1116.59 140.429 1116.24 133.257 1116.22 132.956ZM1112.42 148.974C1110.85 154.056 1108.57 158.653 1105.63 162.638C1102.2 167.285 1097.86 171.111 1092.73 174.024V170.256C1099.39 166.055 1104.4 160.109 1107.65 152.575C1110.32 146.372 1111.19 140.483 1111.45 136.635C1111.47 136.286 1111.24 135.968 1110.91 135.878L1109.41 135.48C1109.02 135.376 1108.62 135.609 1108.52 136C1108.41 136.39 1108.64 136.792 1109.04 136.896L1109.94 137.138C1109.64 140.868 1108.76 146.297 1106.3 151.996C1103.19 159.213 1098.4 164.915 1092.06 168.951C1091.42 168.53 1090.79 168.09 1090.19 167.641C1089.87 167.399 1089.41 167.466 1089.17 167.791C1088.92 168.115 1088.99 168.574 1089.32 168.816C1089.95 169.285 1090.6 169.743 1091.27 170.183V174C1086.13 170.928 1081.8 167.001 1078.37 162.312C1075.43 158.294 1073.15 153.708 1071.58 148.681C1069.32 141.445 1069.21 135.345 1069.23 133.562L1091.27 127.681V131.027L1073.1 135.874C1072.77 135.965 1072.54 136.283 1072.56 136.634C1072.75 139.281 1073.28 143.399 1074.75 147.988C1077.17 155.574 1081.23 161.903 1086.82 166.799C1086.96 166.921 1087.13 166.98 1087.3 166.98C1087.51 166.98 1087.71 166.896 1087.85 166.73C1088.12 166.426 1088.09 165.963 1087.78 165.697C1082.4 160.979 1078.48 154.872 1076.14 147.543C1074.83 143.427 1074.29 139.7 1074.07 137.132L1091.98 132.352L1105.87 136.052C1106.26 136.156 1106.66 135.924 1106.77 135.533C1106.87 135.142 1106.64 134.741 1106.25 134.637L1092.73 131.036V127.691L1114.77 133.563C1114.79 135.376 1114.69 141.639 1112.42 148.974Z" fill="#272343"/>
<path d="M1103.02 143.115C1102.59 142.68 1102.01 142.441 1101.4 142.441C1100.78 142.441 1100.2 142.68 1099.77 143.115L1090.43 152.45L1085.34 147.353C1084.9 146.919 1084.33 146.68 1083.71 146.68C1083.1 146.68 1082.52 146.919 1082.09 147.353C1081.65 147.787 1081.41 148.364 1081.41 148.978C1081.41 149.592 1081.65 150.169 1082.09 150.603L1088.81 157.325C1089.24 157.759 1089.82 157.999 1090.43 157.999C1091.05 157.999 1091.63 157.759 1092.06 157.325L1103.02 146.365C1103.45 145.931 1103.69 145.354 1103.69 144.739C1103.69 144.125 1103.45 143.548 1103.02 143.115ZM1101.98 145.329L1091.02 156.29C1090.87 156.447 1090.66 156.533 1090.43 156.533C1090.21 156.533 1090 156.447 1089.85 156.289L1083.12 149.567C1082.97 149.41 1082.88 149.201 1082.88 148.978C1082.88 148.756 1082.97 148.547 1083.12 148.389C1083.28 148.231 1083.49 148.145 1083.71 148.145C1083.93 148.145 1084.14 148.231 1084.3 148.389L1089.92 154.003C1090.2 154.289 1090.67 154.289 1090.95 154.003L1100.81 144.15C1100.96 143.993 1101.17 143.906 1101.4 143.906C1101.62 143.906 1101.83 143.993 1101.98 144.15C1102.14 144.308 1102.23 144.517 1102.23 144.739C1102.23 144.962 1102.14 145.171 1101.98 145.329Z" fill="#272343"/>
</g>
<path d="M1141.58 136.848H1143.48C1143.43 134.751 1141.57 133.23 1138.91 133.23C1136.29 133.23 1134.27 134.732 1134.27 136.989C1134.27 138.81 1135.58 139.878 1137.68 140.447L1139.23 140.869C1140.63 141.239 1141.71 141.7 1141.71 142.863C1141.71 144.141 1140.49 144.985 1138.8 144.985C1137.28 144.985 1136.02 144.308 1135.9 142.882H1133.92C1134.05 145.254 1135.88 146.717 1138.82 146.717C1141.89 146.717 1143.66 145.1 1143.66 142.882C1143.66 140.523 1141.56 139.609 1139.9 139.2L1138.62 138.868C1137.6 138.606 1136.23 138.126 1136.24 136.874C1136.24 135.761 1137.26 134.937 1138.87 134.937C1140.37 134.937 1141.44 135.64 1141.58 136.848ZM1150.1 146.698C1152.24 146.698 1153.76 145.643 1154.19 144.045L1152.38 143.719C1152.04 144.646 1151.21 145.119 1150.12 145.119C1148.48 145.119 1147.38 144.058 1147.33 142.166H1154.31V141.489C1154.31 137.941 1152.19 136.554 1149.97 136.554C1147.23 136.554 1145.43 138.638 1145.43 141.655C1145.43 144.704 1147.2 146.698 1150.1 146.698ZM1147.34 140.734C1147.42 139.341 1148.43 138.133 1149.98 138.133C1151.46 138.133 1152.43 139.232 1152.44 140.734H1147.34ZM1160.57 146.698C1162.89 146.698 1164.39 145.305 1164.6 143.393H1162.74C1162.5 144.455 1161.67 145.081 1160.58 145.081C1158.96 145.081 1157.92 143.732 1157.92 141.591C1157.92 139.488 1158.98 138.165 1160.58 138.165C1161.8 138.165 1162.54 138.932 1162.74 139.852H1164.6C1164.4 137.871 1162.78 136.554 1160.55 136.554C1157.78 136.554 1155.99 138.638 1155.99 141.636C1155.99 144.595 1157.72 146.698 1160.57 146.698ZM1172.87 142.428C1172.87 144.097 1171.63 144.889 1170.56 144.889C1169.38 144.889 1168.56 144.033 1168.56 142.697V136.682H1166.65V142.927C1166.65 145.362 1167.98 146.628 1169.87 146.628C1171.34 146.628 1172.35 145.848 1172.8 144.8H1172.9V146.5H1174.78V136.682H1172.87V142.428ZM1177.35 146.5H1179.26V140.504C1179.26 139.219 1180.25 138.293 1181.61 138.293C1182 138.293 1182.45 138.363 1182.61 138.408V136.58C1182.41 136.554 1182.04 136.535 1181.79 136.535C1180.64 136.535 1179.66 137.187 1179.3 138.241H1179.2V136.682H1177.35V146.5ZM1188.14 146.698C1190.28 146.698 1191.8 145.643 1192.23 144.045L1190.42 143.719C1190.08 144.646 1189.25 145.119 1188.16 145.119C1186.52 145.119 1185.42 144.058 1185.37 142.166H1192.35V141.489C1192.35 137.941 1190.23 136.554 1188.01 136.554C1185.27 136.554 1183.47 138.638 1183.47 141.655C1183.47 144.704 1185.24 146.698 1188.14 146.698ZM1185.38 140.734C1185.45 139.341 1186.46 138.133 1188.02 138.133C1189.5 138.133 1190.47 139.232 1190.48 140.734H1185.38ZM1199.39 146.5H1201.36V141.898H1204.05C1207.09 141.898 1208.59 140.063 1208.59 137.647C1208.59 135.237 1207.1 133.409 1204.06 133.409H1199.39V146.5ZM1201.36 140.223V135.103H1203.84C1205.8 135.103 1206.6 136.164 1206.6 137.647C1206.6 139.13 1205.8 140.223 1203.87 140.223H1201.36ZM1213.52 146.717C1215.14 146.717 1216.06 145.893 1216.42 145.158H1216.5V146.5H1218.36V139.98C1218.36 137.123 1216.11 136.554 1214.55 136.554C1212.78 136.554 1211.14 137.27 1210.5 139.06L1212.3 139.469C1212.58 138.772 1213.3 138.101 1214.58 138.101C1215.81 138.101 1216.45 138.746 1216.45 139.859V139.903C1216.45 140.6 1215.73 140.587 1213.97 140.792C1212.11 141.009 1210.2 141.495 1210.2 143.726C1210.2 145.656 1211.65 146.717 1213.52 146.717ZM1213.93 145.183C1212.85 145.183 1212.07 144.697 1212.07 143.751C1212.07 142.729 1212.98 142.364 1214.09 142.217C1214.71 142.134 1216.18 141.968 1216.45 141.693V142.959C1216.45 144.122 1215.53 145.183 1213.93 145.183ZM1221.77 150.182C1223.35 150.182 1224.34 149.357 1224.91 147.81L1228.97 136.701L1226.91 136.682L1224.42 144.301H1224.32L1221.83 136.682H1219.78L1223.38 146.628L1223.14 147.28C1222.65 148.584 1221.97 148.692 1220.92 148.405L1220.46 149.971C1220.69 150.073 1221.19 150.182 1221.77 150.182ZM1230.77 146.5H1232.68V140.447C1232.68 139.124 1233.61 138.203 1234.7 138.203C1235.76 138.203 1236.49 138.906 1236.49 139.974V146.5H1238.4V140.242C1238.4 139.06 1239.12 138.203 1240.37 138.203C1241.38 138.203 1242.21 138.766 1242.21 140.095V146.5H1244.12V139.916C1244.12 137.673 1242.86 136.554 1241.09 136.554C1239.68 136.554 1238.61 137.232 1238.14 138.28H1238.04C1237.61 137.206 1236.71 136.554 1235.4 136.554C1234.1 136.554 1233.14 137.2 1232.73 138.28H1232.61V136.682H1230.77V146.5ZM1250.91 146.698C1253.05 146.698 1254.57 145.643 1255 144.045L1253.19 143.719C1252.85 144.646 1252.02 145.119 1250.93 145.119C1249.29 145.119 1248.19 144.058 1248.14 142.166H1255.12V141.489C1255.12 137.941 1253 136.554 1250.78 136.554C1248.04 136.554 1246.24 138.638 1246.24 141.655C1246.24 144.704 1248.02 146.698 1250.91 146.698ZM1248.15 140.734C1248.23 139.341 1249.24 138.133 1250.79 138.133C1252.27 138.133 1253.24 139.232 1253.25 140.734H1248.15ZM1259.16 140.67C1259.16 139.104 1260.11 138.21 1261.44 138.21C1262.74 138.21 1263.53 139.06 1263.53 140.485V146.5H1265.44V140.255C1265.44 137.826 1264.1 136.554 1262.1 136.554C1260.62 136.554 1259.65 137.238 1259.2 138.28H1259.08V136.682H1257.24V146.5H1259.16V140.67ZM1272.58 136.682H1270.57V134.33H1268.66V136.682H1267.22V138.216H1268.66V144.013C1268.65 145.797 1270.02 146.66 1271.52 146.628C1272.13 146.621 1272.54 146.506 1272.76 146.423L1272.42 144.844C1272.29 144.87 1272.05 144.928 1271.75 144.928C1271.13 144.928 1270.57 144.723 1270.57 143.617V138.216H1272.58V136.682Z" fill="#272343"/>
<path d="M1137.96 158.591H1136.64L1133.92 160.402V161.744L1136.58 159.976H1136.64V169.5H1137.96V158.591ZM1144.66 169.649C1147.07 169.649 1148.45 167.609 1148.45 164.045C1148.45 160.509 1147.05 158.442 1144.66 158.442C1142.27 158.442 1140.87 160.509 1140.87 164.045C1140.87 167.609 1142.25 169.649 1144.66 169.649ZM1144.66 168.477C1143.07 168.477 1142.15 166.885 1142.15 164.045C1142.15 161.212 1143.08 159.592 1144.66 159.592C1146.24 159.592 1147.17 161.212 1147.17 164.045C1147.17 166.885 1146.25 168.477 1144.66 168.477ZM1154.04 169.649C1156.44 169.649 1157.83 167.609 1157.83 164.045C1157.83 160.509 1156.42 158.442 1154.04 158.442C1151.65 158.442 1150.24 160.509 1150.24 164.045C1150.24 167.609 1151.63 169.649 1154.04 169.649ZM1154.04 168.477C1152.45 168.477 1151.52 166.885 1151.52 164.045C1151.52 161.212 1152.46 159.592 1154.04 159.592C1155.61 159.592 1156.55 161.212 1156.55 164.045C1156.55 166.885 1155.62 168.477 1154.04 168.477ZM1165.41 167.455C1165.41 168.648 1166.16 169.649 1167.54 169.649C1168.91 169.649 1169.65 168.648 1169.65 167.455V166.879C1169.65 165.686 1168.93 164.685 1167.54 164.685C1166.18 164.685 1165.41 165.686 1165.41 166.879V167.455ZM1159.98 161.212C1159.98 162.405 1160.73 163.406 1162.11 163.406C1163.47 163.406 1164.22 162.405 1164.22 161.212V160.636C1164.22 159.443 1163.5 158.442 1162.11 158.442C1160.75 158.442 1159.98 159.443 1159.98 160.636V161.212ZM1160.38 169.5H1161.6L1169.1 158.591H1167.88L1160.38 169.5ZM1166.5 166.879C1166.5 166.219 1166.8 165.601 1167.54 165.601C1168.31 165.601 1168.57 166.219 1168.57 166.879V167.455C1168.57 168.115 1168.29 168.733 1167.54 168.733C1166.78 168.733 1166.5 168.115 1166.5 167.455V166.879ZM1161.07 160.636C1161.07 159.976 1161.36 159.358 1162.11 159.358C1162.88 159.358 1163.13 159.976 1163.13 160.636V161.212C1163.13 161.872 1162.86 162.49 1162.11 162.49C1161.34 162.49 1161.07 161.872 1161.07 161.212V160.636ZM1182.42 161.318H1183.69C1183.64 159.672 1182.12 158.442 1180.01 158.442C1177.92 158.442 1176.28 159.656 1176.28 161.489C1176.28 162.959 1177.34 163.832 1179.05 164.322L1180.39 164.706C1181.54 165.026 1182.56 165.43 1182.56 166.517C1182.56 167.71 1181.41 168.499 1179.9 168.499C1178.6 168.499 1177.45 167.923 1177.34 166.688H1175.98C1176.11 168.477 1177.56 169.692 1179.9 169.692C1182.42 169.692 1183.84 168.307 1183.84 166.538C1183.84 164.493 1181.9 163.832 1180.78 163.534L1179.67 163.236C1178.86 163.023 1177.56 162.597 1177.56 161.425C1177.56 160.381 1178.52 159.614 1179.97 159.614C1181.29 159.614 1182.29 160.242 1182.42 161.318ZM1189.28 169.67C1190.94 169.67 1192.15 168.839 1192.54 167.604L1191.32 167.263C1191 168.115 1190.26 168.541 1189.28 168.541C1187.8 168.541 1186.78 167.588 1186.72 165.835H1192.66V165.303C1192.66 162.256 1190.85 161.212 1189.15 161.212C1186.93 161.212 1185.46 162.959 1185.46 165.473C1185.46 167.987 1186.91 169.67 1189.28 169.67ZM1186.72 164.749C1186.81 163.475 1187.71 162.341 1189.15 162.341C1190.51 162.341 1191.38 163.364 1191.38 164.749H1186.72ZM1197.9 169.67C1199.71 169.67 1200.9 168.562 1201.12 167.114H1199.86C1199.63 168.009 1198.88 168.541 1197.9 168.541C1196.41 168.541 1195.45 167.305 1195.45 165.409C1195.45 163.555 1196.43 162.341 1197.9 162.341C1199.01 162.341 1199.67 163.023 1199.86 163.768H1201.12C1200.9 162.234 1199.6 161.212 1197.88 161.212C1195.66 161.212 1194.19 162.959 1194.19 165.452C1194.19 167.902 1195.6 169.67 1197.9 169.67ZM1208.11 166.155C1208.11 167.689 1206.94 168.392 1206 168.392C1204.96 168.392 1204.21 167.625 1204.21 166.432V161.318H1202.95V166.517C1202.95 168.605 1204.06 169.607 1205.6 169.607C1206.83 169.607 1207.64 168.946 1208.03 168.115H1208.11V169.5H1209.37V161.318H1208.11V166.155ZM1211.67 169.5H1212.93V164.322C1212.93 163.214 1213.8 162.405 1214.99 162.405C1215.33 162.405 1215.68 162.469 1215.76 162.49V161.212C1215.62 161.201 1215.29 161.19 1215.1 161.19C1214.12 161.19 1213.27 161.744 1212.97 162.554H1212.88V161.318H1211.67V169.5ZM1220.43 169.67C1222.09 169.67 1223.31 168.839 1223.69 167.604L1222.48 167.263C1222.16 168.115 1221.42 168.541 1220.43 168.541C1218.96 168.541 1217.94 167.588 1217.88 165.835H1223.82V165.303C1223.82 162.256 1222.01 161.212 1220.3 161.212C1218.09 161.212 1216.62 162.959 1216.62 165.473C1216.62 167.987 1218.07 169.67 1220.43 169.67ZM1217.88 164.749C1217.97 163.475 1218.87 162.341 1220.3 162.341C1221.67 162.341 1222.54 163.364 1222.54 164.749H1217.88ZM1230.12 169.5H1231.44V165.516H1233.83C1236.37 165.516 1237.52 163.971 1237.52 162.043C1237.52 160.114 1236.37 158.591 1233.81 158.591H1230.12V169.5ZM1231.44 164.344V159.763H1233.77C1235.54 159.763 1236.22 160.732 1236.22 162.043C1236.22 163.353 1235.54 164.344 1233.79 164.344H1231.44ZM1241.88 169.692C1243.31 169.692 1244.05 168.925 1244.31 168.392H1244.37V169.5H1245.63V164.109C1245.63 161.51 1243.65 161.212 1242.6 161.212C1241.37 161.212 1239.96 161.638 1239.32 163.129L1240.52 163.555C1240.79 162.959 1241.45 162.32 1242.65 162.32C1243.8 162.32 1244.37 162.932 1244.37 163.982V164.024C1244.37 164.631 1243.76 164.578 1242.26 164.77C1240.75 164.967 1239.09 165.303 1239.09 167.178C1239.09 168.776 1240.33 169.692 1241.88 169.692ZM1242.07 168.562C1241.07 168.562 1240.35 168.115 1240.35 167.241C1240.35 166.283 1241.22 165.984 1242.2 165.857C1242.73 165.793 1244.16 165.643 1244.37 165.388V166.538C1244.37 167.561 1243.56 168.562 1242.07 168.562ZM1248.44 172.568C1249.58 172.568 1250.38 171.966 1250.85 170.693L1254.33 161.339L1252.96 161.318L1250.7 167.838H1250.61L1248.36 161.318H1246.99L1250.02 169.543L1249.78 170.182C1249.33 171.428 1248.76 171.545 1247.85 171.311L1247.53 172.419C1247.65 172.483 1248.02 172.568 1248.44 172.568ZM1256 169.5H1257.25V164.386C1257.25 163.188 1258.13 162.341 1259.11 162.341C1260.06 162.341 1260.73 162.964 1260.73 163.896V169.5H1262V164.173C1262 163.119 1262.67 162.341 1263.82 162.341C1264.71 162.341 1265.48 162.815 1265.48 164.024V169.5H1266.73V164.024C1266.73 162.101 1265.7 161.212 1264.24 161.212C1263.07 161.212 1262.21 161.75 1261.79 162.597H1261.71C1261.3 161.723 1260.59 161.212 1259.51 161.212C1258.45 161.212 1257.66 161.723 1257.32 162.597H1257.21V161.318H1256V169.5ZM1272.46 169.67C1274.13 169.67 1275.34 168.839 1275.72 167.604L1274.51 167.263C1274.19 168.115 1273.45 168.541 1272.46 168.541C1270.99 168.541 1269.97 167.588 1269.91 165.835H1275.85V165.303C1275.85 162.256 1274.04 161.212 1272.34 161.212C1270.12 161.212 1268.65 162.959 1268.65 165.473C1268.65 167.987 1270.1 169.67 1272.46 169.67ZM1269.91 164.749C1270 163.475 1270.9 162.341 1272.34 162.341C1273.7 162.341 1274.57 163.364 1274.57 164.749H1269.91ZM1279.02 164.578C1279.02 163.151 1279.91 162.341 1281.11 162.341C1282.28 162.341 1282.98 163.103 1282.98 164.386V169.5H1284.24V164.301C1284.24 162.213 1283.13 161.212 1281.47 161.212C1280.24 161.212 1279.47 161.766 1279.08 162.597H1278.98V161.318H1277.76V169.5H1279.02V164.578ZM1290.1 161.318H1288.35V159.358H1287.09V161.318H1285.86V162.384H1287.09V167.497C1287.09 168.925 1288.24 169.607 1289.31 169.607C1289.78 169.607 1290.08 169.521 1290.25 169.457L1289.99 168.328C1289.88 168.349 1289.71 168.392 1289.44 168.392C1288.88 168.392 1288.35 168.222 1288.35 167.156V162.384H1290.1V161.318ZM1296.38 158.591V169.5H1297.61V161.212H1297.72L1301.13 169.5H1302.32L1305.73 161.212H1305.84V169.5H1307.07V158.591H1305.5L1301.79 167.646H1301.66L1297.95 158.591H1296.38ZM1312.98 169.67C1314.64 169.67 1315.86 168.839 1316.24 167.604L1315.03 167.263C1314.71 168.115 1313.97 168.541 1312.98 168.541C1311.51 168.541 1310.49 167.588 1310.43 165.835H1316.37V165.303C1316.37 162.256 1314.56 161.212 1312.85 161.212C1310.64 161.212 1309.17 162.959 1309.17 165.473C1309.17 167.987 1310.62 169.67 1312.98 169.67ZM1310.43 164.749C1310.52 163.475 1311.42 162.341 1312.85 162.341C1314.22 162.341 1315.09 163.364 1315.09 164.749H1310.43ZM1321.84 161.318H1320.09V159.358H1318.84V161.318H1317.6V162.384H1318.84V167.497C1318.84 168.925 1319.99 169.607 1321.05 169.607C1321.52 169.607 1321.82 169.521 1321.99 169.457L1321.73 168.328C1321.63 168.349 1321.46 168.392 1321.18 168.392C1320.63 168.392 1320.09 168.222 1320.09 167.156V162.384H1321.84V161.318ZM1325.16 164.578C1325.16 163.151 1326.07 162.341 1327.32 162.341C1328.5 162.341 1329.21 163.087 1329.21 164.386V169.5H1330.47V164.301C1330.47 162.197 1329.35 161.212 1327.68 161.212C1326.39 161.212 1325.65 161.75 1325.27 162.597H1325.16V158.591H1323.91V169.5H1325.16V164.578ZM1336.09 169.67C1338.31 169.67 1339.8 167.987 1339.8 165.452C1339.8 162.895 1338.31 161.212 1336.09 161.212C1333.88 161.212 1332.39 162.895 1332.39 165.452C1332.39 167.987 1333.88 169.67 1336.09 169.67ZM1336.09 168.541C1334.41 168.541 1333.64 167.092 1333.64 165.452C1333.64 163.811 1334.41 162.341 1336.09 162.341C1337.78 162.341 1338.54 163.811 1338.54 165.452C1338.54 167.092 1337.78 168.541 1336.09 168.541ZM1344.81 169.67C1346.39 169.67 1346.92 168.69 1347.19 168.243H1347.34V169.5H1348.56V158.591H1347.3V162.618H1347.19C1346.92 162.192 1346.43 161.212 1344.83 161.212C1342.76 161.212 1341.34 162.852 1341.34 165.43C1341.34 168.03 1342.76 169.67 1344.81 169.67ZM1344.98 168.541C1343.4 168.541 1342.59 167.156 1342.59 165.409C1342.59 163.683 1343.38 162.341 1344.98 162.341C1346.51 162.341 1347.32 163.577 1347.32 165.409C1347.32 167.263 1346.49 168.541 1344.98 168.541Z" fill="#9A9CAA"/>
</g>
<defs>
<filter id="filter0_d_1_543" x="0" y="0" width="1520" height="350" filterUnits="userSpaceOnUse" color-interpolation-filters="sRGB">
<feFlood flood-opacity="0" result="BackgroundImageFix"/>
<feColorMatrix in="SourceAlpha" type="matrix" values="0 0 0 0 0 0 0 0 0 0 0 0 0 0 0 0 0 0 127 0" result="hardAlpha"/>
<feOffset dy="24"/>
<feGaussianBlur stdDeviation="50"/>
<feColorMatrix type="matrix" values="0 0 0 0 0.0864931 0 0 0 0 0.0974271 0 0 0 0 0.195833 0 0 0 0.07 0"/>
<feBlend mode="normal" in2="BackgroundImageFix" result="effect1_dropShadow_1_543"/>
<feBlend mode="normal" in="SourceGraphic" in2="effect1_dropShadow_1_543" result="shape"/>
</filter>
<clipPath id="clip0_1_543">
<rect width="46" height="46" fill="white" transform="translate(170 126)"/>
</clipPath>
<clipPath id="clip1_1_543">
<rect width="50" height="50" fill="white" transform="translate(757 126)"/>
</clipPath>
<clipPath id="clip2_1_543">
<rect width="50" height="50" fill="white" transform="translate(1067 126)"/>
</clipPath>
</defs>
</svg>
